:SAMPLES-PER-SECOND 30
:FULLY-SPECIFIED
:DEGREES
386
root  -2.12204 33.0366 2.19401 -54.9687 -86.0586 52.8289
RightUpLeg  -20.9594 -25.8524 -34.9854
RightLeg  51.1949 4.8949 6.14834
RightFoot  -6.287 -1.26434 27.1198
RightToes  -6.40286e-010 0 -3.6325e-017
Spine  18.0996 -0.145226 1.22077
Spine1  -12.0306 -1.51496 22.2304
HEad  -9.95793 13.1067 -21.8408
LeftShoulder1  0.13121 1.65893 1.52934
LeftArm  16.792 5.53915 -5.8599
LeftForeArm  46.7857 -12.2291 -10.614
LeftHand  2.39325 9.97454 54.6879
RightShoulder  -0.238553 -4.97856 8.49173
RightArm  -46.796 -19.0975 18.0656
RightForeArm  -48.2283 32.8924 9.31702
RightHand  -0.477212 -3.19749 -24.8616
LeftUpLeg  -17.9009 28.5629 35.9733
LeftLeg  47.2441 -3.22846 -3.31008
LeftFoot  12.863 8.51006 -38.681
LeftToes  -2.09187e-010 -4.93792e-011 -8.21189e-011
387
root  -2.05858 33.3952 3.38933 -49.8492 -83.7566 47.8469
RightUpLeg  -17.2757 -24.8111 -38.4286
RightLeg  45.1596 3.88995 3.88246
RightFoot  -2.81262 -2.27222 29.5978
RightToes  -6.40286e-010 0 -3.6325e-017
Spine  17.9094 1.29703 4.34588
Spine1  -13.1233 0.580208 18.4763
HEad  -8.24752 8.21492 -23.1072
LeftShoulder1  0.125801 1.73402 1.53075
LeftArm  20.896 5.55609 -5.30869
LeftForeArm  46.0116 -12.5534 -10.7492
LeftHand  2.39562 10.027 54.2245
RightShoulder  -0.297312 -5.6124 6.28105
RightArm  -48.8207 -15.4976 11.7096
RightForeArm  -46.3268 30.1488 8.51148
RightHand  -0.54643 -2.82655 -24.3521
LeftUpLeg  -19.4406 32.2989 32.6579
LeftLeg  49.1821 -6.17492 -7.16966
LeftFoot  11.9381 7.71115 -36.6157
LeftToes  -2.09187e-010 -4.93792e-011 -8.21189e-011
388
root  -1.99719 33.8767 4.63947 -49.8613 -81.7936 48.3447
RightUpLeg  -13.855 -23.3337 -41.4113
RightLeg  37.9844 1.69027 1.16575
RightFoot  2.34251 -3.87985 31.6568
RightToes  -6.40286e-010 0 -3.6325e-017
Spine  17.8577 2.83697 6.96209
Spine1  -14.6445 2.71178 14.1051
HEad  -5.86101 3.93339 -24.0622
LeftShoulder1  0.111357 1.93569 1.54203
LeftArm  26.2334 6.67994 -4.58203
LeftForeArm  42.8023 -13.8294 -10.2881
LeftHand  2.3957 10.1542 53.0068
RightShoulder  -0.328637 -6.37481 3.31579
RightArm  -50.4813 -12.106 5.63973
RightForeArm  -43.5005 26.6305 7.54896
RightHand  -0.478901 -2.97305 -22.6172
LeftUpLeg  -20.1436 36.604 28.8304
LeftLeg  50.2288 -8.66795 -10.5615
LeftFoot  10.4674 6.55794 -33.4808
LeftToes  -2.09187e-010 -4.93792e-011 -8.21189e-011
389
root  -1.91212 34.4018 5.90814 -48.7811 -79.8138 47.7676
RightUpLeg  -10.033 -20.8811 -44.1368
RightLeg  30.0528 -2.46821 -1.7455
RightFoot  9.2802 -6.33319 34.1264
RightToes  -6.40286e-010 0 -3.6325e-017
Spine  18.2209 4.03966 9.45129
Spine1  -16.5682 4.49044 9.19511
HEad  -3.44553 -0.00537137 -24.3806
LeftShoulder1  0.0838725 2.26349 1.93561
LeftArm  29.5843 8.6041 -3.8719
LeftForeArm  40.8976 -14.7058 -9.84153
LeftHand  2.30786 10.1189 51.6713
RightShoulder  -0.304452 -7.02184 0.182288
RightArm  -51.6284 -9.11645 0.23138
RightForeArm  -41.1316 22.8615 6.20578
RightHand  -0.429505 -3.1294 -21.6786
LeftUpLeg  -20.8064 40.6643 24.5953
LeftLeg  50.8386 -10.5454 -13.1355
LeftFoot  9.21548 5.44801 -29.7501
LeftToes  -2.09187e-010 -4.93792e-011 -8.21189e-011
390
root  -1.7958 34.8858 7.17264 -45.7008 -77.6571 45.0165
RightUpLeg  -5.91025 -16.4373 -46.5197
RightLeg  22.3985 -9.49769 -4.38549
RightFoot  18.1609 -9.40767 35.2582
RightToes  -6.40286e-010 0 -3.6325e-017
Spine  18.5976 4.78056 12.1397
Spine1  -18.1207 5.74513 4.17827
HEad  -1.59982 -4.16581 -24.2073
LeftShoulder1  0.0470243 2.73201 2.70969
LeftArm  29.4649 10.6176 -3.68414
LeftForeArm  41.1428 -14.4137 -10.0266
LeftHand  2.2759 10.1285 50.9755
RightShoulder  -0.249393 -7.62725 -2.73929
RightArm  -50.1852 -6.80995 -4.50619
RightForeArm  -40.9748 19.6625 3.80479
RightHand  -0.521997 -2.6991 -22.1835
LeftUpLeg  -21.7136 43.2027 20.3281
LeftLeg  51.3359 -12.049 -15.2289
LeftFoot  8.32901 4.67036 -26.8006
LeftToes  -2.09187e-010 -4.93792e-011 -8.21189e-011
391
root  -1.66909 35.2923 8.37718 -41.4587 -75.2727 41.1633
RightUpLeg  -2.21417 -12.1352 -48.1167
RightLeg  15.8913 -17.5612 -6.17949
RightFoot  28.1489 -11.3168 31.5481
RightToes  -6.40286e-010 0 -3.6325e-017
Spine  18.5259 5.26718 14.7813
Spine1  -19.0225 6.62539 -0.548537
HEad  -0.307951 -8.65562 -23.7628
LeftShoulder1  0.00534243 3.40577 3.66783
LeftArm  27.471 12.5398 -4.37807
LeftForeArm  40.9255 -13.7099 -10.425
LeftHand  2.35628 10.3486 50.5293
RightShoulder  -0.171801 -8.31298 -5.54075
RightArm  -47.1289 -5.35567 -8.79645
RightForeArm  -40.7142 16.7059 1.47671
RightHand  -0.645344 -2.09539 -22.4968
LeftUpLeg  -22.9615 43.6587 16.0833
LeftLeg  51.649 -13.2215 -16.8345
LeftFoot  7.23007 4.10717 -25.0331
LeftToes  -2.09187e-010 -4.93792e-011 -8.21189e-011
392
root  -1.52982 35.5942 9.45884 -36.0853 -72.9039 36.5885
RightUpLeg  0.510789 -14.8247 -48.3986
RightLeg  10.1682 -20.2445 -7.31412
RightFoot  37.0293 -10.2251 23.1587
RightToes  -6.40286e-010 0 -3.6325e-017
Spine  18.2913 5.73282 17.2905
Spine1  -20.1769 7.40172 -4.98808
HEad  0.692584 -13.2179 -22.9176
LeftShoulder1  -0.0329452 4.2583 4.66344
LeftArm  25.9374 14.7807 -5.82936
LeftForeArm  38.7744 -13.8872 -10.2154
LeftHand  2.3922 10.5182 49.7375
RightShoulder  -0.063943 -8.98925 -8.27816
RightArm  -43.7542 -4.53579 -12.8175
RightForeArm  -38.6964 13.6509 -0.0415594
RightHand  -0.660448 -1.93036 -21.9283
LeftUpLeg  -25.0094 42.6515 11.8545
LeftLeg  51.8577 -13.6725 -17.5059
LeftFoot  5.53131 3.46071 -23.2627
LeftToes  -2.09187e-010 -4.93792e-011 -8.21189e-011
